<svg width="20" height="21" viewBox="0 0 20 21" fill="none" xmlns="http://www.w3.org/2000/svg">
<path d="M17.2147 3.28536C16.4939 2.56453 15.5355 2.16699 14.5164 2.16699C13.4972 2.16699 12.5389 2.56453 11.8181 3.28536L3.04055 12.0628C2.66972 12.4337 2.42804 12.9029 2.34221 13.4195L1.68389 17.3678C1.61722 17.7678 1.74891 18.1787 2.03474 18.4645C2.27224 18.702 2.59472 18.8328 2.92555 18.8328C2.99472 18.8328 3.06304 18.827 3.1322 18.8153L7.08057 18.157C7.59724 18.0711 8.06639 17.8295 8.43723 17.4586L17.2147 8.68117C17.9356 7.96034 18.3331 7.00114 18.3331 5.98281C18.3331 4.96364 17.9356 4.00619 17.2147 3.28536ZM7.25889 16.282C7.13556 16.4053 6.9789 16.4862 6.80723 16.5145L3.42222 17.0787L3.98639 13.6937C4.01472 13.522 4.09555 13.3654 4.21888 13.242L10.8072 6.65369L13.8472 9.69364L7.25889 16.282ZM16.0364 7.5037L15.0256 8.51444L11.9856 5.47449L12.9964 4.46364C13.4022 4.05781 13.943 3.83366 14.5164 3.83366C15.0905 3.83366 15.6306 4.05781 16.0364 4.46364C16.4422 4.86948 16.6664 5.40946 16.6664 5.98362C16.6664 6.55779 16.4422 7.09787 16.0364 7.5037Z" fill="#9D9DA3"/>
</svg>
